<?xml version="1.0" standalone="no"?>
<!DOCTYPE svg PUBLIC "-//W3C//DTD SVG 20010904//EN"
 "http://www.w3.org/TR/2001/REC-SVG-20010904/DTD/svg10.dtd">
<svg version="1.0" xmlns="http://www.w3.org/2000/svg"
 width="533.000000pt" height="533.000000pt" viewBox="0 0 533.000000 533.000000"
 preserveAspectRatio="xMidYMid meet">
<metadata>
Created by potrace 1.16, written by Peter Selinger 2001-2019
</metadata>
<g transform="translate(0.000000,533.000000) scale(0.100000,-0.100000)"
fill="#000000" stroke="none">
<path d="M2420 4200 c-285 -17 -403 -62 -587 -224 -64 -57 -132 -86 -200 -86
-43 0 -137 32 -227 77 -77 39 -169 53 -218 34 -39 -15 -60 -64 -60 -137 0 -90
42 -175 131 -268 68 -69 70 -74 81 -141 15 -93 35 -127 88 -144 65 -20 77 -51
76 -186 -1 -83 -8 -136 -28 -215 -40 -162 -33 -279 25 -432 17 -42 52 -111 80
-153 27 -42 49 -77 49 -78 0 -1 -154 -2 -343 -3 -280 0 -356 -3 -422 -17 -92
-19 -119 -38 -93 -63 14 -14 23 -15 60 -6 99 25 286 35 572 29 224 -4 290 -8
297 -18 4 -7 7 -14 6 -15 -1 -2 -90 -7 -198 -14 -192 -10 -321 -26 -406 -49
-36 -10 -43 -16 -43 -36 0 -34 13 -38 72 -20 74 22 262 42 470 51 171 6 177 6
204 -15 23 -18 24 -21 8 -21 -119 -1 -565 -50 -689 -76 -144 -30 -192 -54
-179 -89 8 -19 17 -18 134 14 131 36 430 73 705 87 113 6 132 5 144 -9 16 -19
24 -18 -189 -46 -151 -20 -311 -58 -332 -79 -16 -16 9 -55 30 -47 72 29 251
63 479 90 l52 7 4 -34 c3 -18 10 -70 16 -115 10 -83 40 -156 87 -219 28 -36
103 -79 156 -89 25 -5 45 -18 67 -45 l30 -38 -25 -23 c-40 -37 -116 -157 -112
-176 2 -10 12 -19 23 -21 15 -2 31 13 62 60 23 35 57 78 75 95 l34 33 41 -16
41 -16 -13 -37 c-7 -20 -16 -55 -19 -78 -6 -35 -5 -43 12 -52 25 -13 37 0 47
49 4 19 13 49 20 67 l13 32 136 0 c154 0 147 4 167 -91 13 -59 24 -71 52 -57
15 9 17 17 11 52 -3 23 -12 58 -19 78 l-13 37 41 16 41 16 34 -33 c18 -17 52
-60 75 -95 31 -47 47 -62 62 -60 11 2 21 11 23 22 4 20 -71 136 -112 175 l-25
23 31 39 c22 27 42 41 67 45 52 9 127 52 155 88 60 79 95 188 96 298 0 31 4
59 9 62 23 14 373 -41 484 -77 59 -18 69 -19 77 -7 6 8 10 21 10 28 0 30 -158
70 -395 101 -80 10 -148 21 -152 24 -3 4 7 12 21 18 22 10 73 9 256 -4 268
-21 468 -48 598 -82 111 -30 118 -30 126 -8 11 27 -14 42 -114 67 -144 36
-535 86 -679 86 -25 0 -56 3 -68 6 l-23 6 24 19 c22 17 36 18 237 9 231 -10
344 -22 428 -46 62 -18 84 -13 79 18 -6 43 -181 75 -471 85 -187 6 -188 6
-169 26 19 18 36 19 358 21 236 0 363 -3 419 -12 161 -27 152 -27 160 -2 10
31 -1 38 -91 57 -64 14 -143 17 -426 17 -192 1 -348 3 -348 5 0 2 20 34 45 71
84 127 135 286 135 422 0 35 -12 108 -25 163 -32 125 -42 284 -23 340 12 33
23 44 65 64 60 28 78 55 93 144 12 65 15 71 84 141 90 90 128 164 134 258 3
55 0 73 -18 106 -25 44 -41 52 -114 52 -38 0 -74 -11 -158 -50 -131 -60 -184
-74 -248 -67 -65 8 -116 36 -192 103 -163 147 -275 186 -586 204 -184 11 -284
11 -472 0z m516 -60 c244 -20 353 -60 489 -180 44 -39 96 -80 115 -90 55 -28
140 -41 207 -30 32 6 60 10 63 10 19 -1 -107 -64 -160 -80 -58 -19 -74 -20
-152 -10 -49 6 -119 22 -157 35 -81 30 -97 31 -106 8 -9 -26 25 -49 108 -74
111 -32 191 -76 256 -138 66 -63 100 -123 110 -190 5 -41 9 -46 31 -46 21 0
25 5 28 36 6 75 -58 190 -150 266 l-38 31 50 11 c66 14 189 77 321 163 130 84
163 95 184 65 21 -30 19 -86 -6 -153 -16 -41 -41 -78 -94 -133 -84 -89 -89
-96 -105 -176 -14 -68 -26 -95 -41 -95 -30 0 -78 -35 -98 -71 -43 -76 -38
-257 11 -429 45 -161 2 -358 -120 -536 -62 -92 -70 -97 -167 -102 -86 -5 -111
-16 -99 -45 4 -12 22 -17 66 -19 l60 -3 -70 -52 c-38 -29 -78 -53 -89 -53 -18
0 -19 4 -12 48 8 49 21 86 41 114 10 14 10 21 -3 33 -9 9 -23 13 -33 9 -22 -8
-52 -69 -61 -119 -12 -78 -15 -84 -38 -87 -31 -4 -31 -52 1 -56 27 -4 29 -28
2 -35 -24 -6 -27 -45 -5 -53 11 -5 15 -22 15 -65 0 -149 -59 -277 -151 -325
-43 -22 -233 -32 -297 -15 -74 21 -142 98 -142 163 0 16 13 31 43 50 63 40 82
65 82 106 0 31 6 40 45 69 89 65 100 78 100 116 0 26 -7 41 -26 56 -14 11 -32
17 -40 14 -16 -6 -19 -39 -4 -48 22 -14 7 -35 -55 -80 -73 -52 -89 -75 -81
-115 5 -25 0 -32 -45 -61 l-51 -32 -31 18 c-53 30 -67 47 -67 79 0 42 -19 67
-90 117 -58 40 -71 61 -50 74 16 10 12 42 -7 49 -22 9 -63 -31 -63 -60 0 -40
20 -68 84 -114 52 -40 61 -50 58 -74 -4 -38 17 -67 77 -105 56 -36 62 -55 37
-114 -21 -52 -77 -94 -143 -107 -65 -14 -221 -8 -268 10 -70 26 -133 118 -153
220 -19 94 -18 161 1 171 24 14 22 50 -3 56 -25 7 -26 33 -1 33 10 0 24 6 30
14 16 20 3 46 -24 46 -20 0 -24 6 -30 53 -8 60 -34 126 -58 145 -22 19 -51 11
-55 -13 -3 -20 -6 -20 -99 -10 l-97 10 -43 55 c-56 70 -128 216 -147 300 -23
95 -20 180 11 310 36 156 39 314 6 380 -22 44 -65 80 -97 80 -20 0 -32 23 -45
92 -14 79 -32 109 -105 181 -97 97 -142 220 -102 282 23 35 49 27 176 -57 131
-86 273 -158 328 -165 23 -3 42 -7 42 -9 0 -2 -28 -32 -63 -67 -78 -77 -111
-142 -112 -217 0 -45 3 -55 19 -58 23 -5 36 14 36 54 0 49 47 129 111 188 74
69 130 102 204 121 101 27 155 55 155 80 0 32 -20 36 -71 13 -66 -29 -163 -49
-249 -50 -71 -1 -84 2 -165 41 -48 23 -85 44 -83 46 1 1 31 -1 65 -7 49 -7 76
-6 125 7 73 18 110 41 203 124 157 139 308 176 726 180 91 0 224 -4 295 -9z
m-163 -2672 c28 -14 68 -22 126 -26 l85 -5 -30 -24 c-36 -29 -116 -61 -121
-48 -2 6 -12 25 -23 43 -21 35 -41 40 -60 17 -10 -12 -9 -20 4 -40 9 -13 16
-29 16 -35 0 -6 -39 -10 -105 -10 -58 0 -105 2 -105 5 0 4 7 20 16 36 18 36
12 59 -16 59 -18 0 -51 -40 -63 -75 -5 -13 -85 19 -121 48 l-30 24 85 5 c100
6 152 29 201 87 l33 39 33 -39 c19 -22 53 -49 75 -61z"/>
<path d="M1903 3403 c-25 -9 -12 -37 59 -125 54 -66 77 -88 92 -86 40 6 27 41
-47 127 -73 86 -82 93 -104 84z"/>
<path d="M3394 3402 c-5 -4 -41 -44 -78 -89 -68 -84 -79 -115 -41 -121 15 -2
39 21 93 87 74 91 84 114 56 125 -19 7 -17 7 -30 -2z"/>
<path d="M2072 3111 c-50 -31 66 -100 222 -131 108 -21 141 -41 154 -94 6 -24
14 -31 33 -31 19 0 25 6 27 30 6 74 -73 135 -208 158 -67 12 -155 42 -210 74
-3 1 -11 -1 -18 -6z"/>
<path d="M3198 3089 c-32 -17 -83 -35 -115 -41 -159 -30 -223 -65 -242 -135
-12 -44 -5 -63 23 -63 18 0 25 9 35 40 16 53 50 74 154 93 93 17 180 48 217
77 20 15 23 23 14 36 -16 26 -24 25 -86 -7z"/>
<path d="M1863 3063 c-27 -10 -12 -43 31 -68 l44 -26 -5 -58 c-8 -85 16 -148
76 -205 94 -87 212 -94 322 -20 l51 34 -7 -75 c-6 -65 -4 -76 10 -81 26 -10
44 16 51 78 9 78 -3 161 -29 200 -36 53 -100 95 -164 108 -150 29 -227 51
-290 82 -82 40 -75 37 -90 31z m171 -133 c20 -7 26 -16 26 -40 0 -74 56 -125
127 -117 49 5 80 28 98 70 l12 29 29 -26 29 -25 -20 -38 c-68 -128 -259 -114
-329 24 -17 34 -22 133 -7 133 5 0 21 -4 35 -10z"/>
<path d="M3371 3030 c-67 -34 -110 -47 -283 -80 -72 -14 -137 -57 -168 -112
-22 -38 -25 -55 -25 -145 0 -82 3 -106 17 -119 9 -9 24 -14 33 -11 14 6 15 18
9 83 l-7 76 49 -35 c90 -64 177 -71 274 -22 90 45 136 133 127 241 l-5 63 45
27 c34 19 43 31 41 47 -4 32 -25 30 -107 -13z m-36 -153 c0 -46 -6 -64 -30
-98 -56 -78 -156 -105 -240 -63 -36 17 -85 73 -85 96 0 5 12 20 27 34 l28 26
12 -31 c45 -110 215 -76 215 43 0 29 5 37 27 45 40 15 46 8 46 -52z"/>
<path d="M1817 2643 c-18 -17 -3 -42 42 -72 55 -35 109 -101 118 -143 7 -34
27 -52 49 -44 13 5 15 15 11 48 -7 54 -48 111 -122 170 -56 45 -83 57 -98 41z"/>
<path d="M3434 2616 c-80 -54 -144 -143 -144 -201 0 -53 53 -40 65 15 8 35 82
120 130 150 37 23 46 54 19 64 -9 3 -16 6 -17 6 -1 0 -25 -15 -53 -34z"/>
<path d="M2495 2550 c-10 -16 14 -107 42 -164 27 -53 108 -146 128 -146 20 0
100 94 125 145 28 57 50 142 43 161 -11 28 -47 11 -56 -26 -17 -68 -39 -115
-75 -164 l-36 -49 -28 34 c-36 42 -67 106 -82 167 -9 35 -17 48 -33 50 -12 2
-24 -2 -28 -8z"/>
<path d="M2183 2378 c-77 -119 -86 -189 -36 -276 19 -33 30 -42 46 -40 27 4
34 33 14 56 -48 56 -38 124 32 232 45 69 48 93 14 98 -18 3 -32 -11 -70 -70z"/>
<path d="M3054 2435 c-4 -9 11 -42 34 -78 79 -120 86 -170 36 -238 -18 -24
-21 -36 -13 -50 14 -26 26 -24 59 12 72 80 59 192 -39 327 -32 43 -66 55 -77
27z"/>
<path d="M2503 2043 c-41 -16 24 -87 104 -114 64 -21 170 8 217 60 40 44 -8
77 -54 37 -62 -51 -136 -52 -209 -2 -20 14 -39 26 -42 25 -2 0 -10 -3 -16 -6z"/>
</g>
</svg>
